<svg xmlns="http://www.w3.org/2000/svg" viewBox="0 0 25 25"><defs><style>.cls-1{fill:#fff;}</style></defs><g id="레이어_2" data-name="레이어 2"><g id="레이어_1-2" data-name="레이어 1"><path class="cls-1" d="M12.5,0A12.5,12.5,0,1,0,25,12.5,12.5,12.5,0,0,0,12.5,0Zm1.37,19.33H11.23V16.7h2.64Zm2.55-7.7a6.49,6.49,0,0,1-1.61,1.55A2.69,2.69,0,0,0,14,14a3.14,3.14,0,0,0-.26,1.43H11.3a5.47,5.47,0,0,1,.3-2.11,4.27,4.27,0,0,1,1.56-1.63,3,3,0,0,0,.82-.87,2.11,2.11,0,0,0,.3-1.12,1.84,1.84,0,0,0-.59-1.51,1.88,1.88,0,0,0-1.16-.36,1.81,1.81,0,0,0-1.61.74,2.49,2.49,0,0,0-.36,1.4v0H8A4.06,4.06,0,0,1,9.42,6.63a4.55,4.55,0,0,1,2.95-1,5.78,5.78,0,0,1,2.7.6A3.47,3.47,0,0,1,17,9.63,3.46,3.46,0,0,1,16.42,11.63Z"/></g></g></svg>