<svg xmlns="http://www.w3.org/2000/svg" viewBox="0 0 641.69 81.5"><defs><style>.cls-1{fill:#333;}.cls-2{fill:#fff;}</style></defs><g id="레이어_2" data-name="레이어 2"><g id="레이어_1-2" data-name="레이어 1"><path class="cls-1" d="M631.69,0H30A10,10,0,0,0,20,10v5L0,26,20,37V71.5a10,10,0,0,0,10,10H631.69a10,10,0,0,0,10-10V10A10,10,0,0,0,631.69,0Z"/><path class="cls-2" d="M53.86,30.29c-1.42.18-3.51.35-5.54.45-1.86.09-4.29.15-5.48.15l-.25-1.44c1.35,0,3,0,4.59-.06V26.71a4,4,0,0,1-3.74-3.91c0-2.39,2-4.1,4.55-4.1s4.61,1.64,4.61,4.1a4,4,0,0,1-3.72,3.91v2.61c1.8-.07,3.69-.2,4.82-.36ZM48,20.19a2.65,2.65,0,0,0-2.82,2.6A2.61,2.61,0,0,0,48,25.31a2.65,2.65,0,0,0,2.85-2.52A2.62,2.62,0,0,0,48,20.19Zm6.76,14.08V17.53h1.69V34.27Z"/><path class="cls-2" d="M65.81,34.29V28.83H59.13V27.45H74.26v1.38H67.51v5.46ZM61,25.56v-7.4h1.69v2.37h8V18.16H72.4v7.4Zm9.74-3.66h-8v2.29h8Z"/><path class="cls-2" d="M89.11,26.87v3.84h6.75v1.37H80.73V30.71h6.68V26.87H82.52v-8h1.69V25.5h9.94v1.37Z"/><path class="cls-2" d="M99.17,34V30.22h9.72V29.16h-9.8V27.83H104V26.6H97.29V25.29h15.13V26.6h-6.75v1.23h4.91v3.62h-9.72v1.17h10.28V34ZM111,24.69c-2.72-.3-5.24-1.36-6.1-2.66-.81,1.33-3.32,2.39-6.09,2.66L98,23.31c2.43-.06,5-.94,5.76-2.15H98.88V19.83h11.94v1.33h-4.88c.81,1.19,3.44,2.08,5.72,2.15Zm-8.82-5.83V17.53h5.42v1.33Z"/><path class="cls-2" d="M118.77,18.79c3,0,4.28,2.59,4.28,5.92s-1.31,5.91-4.28,5.91-4.32-2.6-4.32-5.93S115.8,18.79,118.77,18.79Zm0,1.46c-1.71,0-2.59,1.87-2.59,4.46s.88,4.45,2.59,4.45,2.59-1.87,2.59-4.45S120.48,20.25,118.77,20.25Zm7.2,14V17.53h1.69V34.27Z"/><path class="cls-2" d="M145.88,27.66c-1.23.17-3.39.36-5.29.47s-4.07.18-5.23.18l-.25-1.42c1.23,0,2.87,0,4.43-.07V25.13c-2.09-.27-3.47-1.61-3.47-3.37,0-2,1.78-3.48,4.32-3.48s4.3,1.5,4.3,3.48c0,1.76-1.4,3.1-3.46,3.37v1.6c1.68-.09,3.53-.24,4.51-.38ZM137.69,34V29.3h1.69v3.28h9.51V34Zm2.7-14.26a2.31,2.31,0,0,0-2.58,2.07c0,1.13,1,2,2.58,2s2.54-.95,2.54-2A2.26,2.26,0,0,0,140.39,19.69Zm8.08,4.9v5.52H146.8V17.53h1.67v5.63H151v1.43Z"/><path class="cls-2" d="M163.11,27.9v2.86h4v1.39H152V30.76h4.09V27.9h-2.23V22.66h9.69V20.3h-9.73V18.91h11.42V24h-9.69v2.47H165.7V27.9Zm-5.35,2.86h3.69V27.9h-3.69Z"/><path class="cls-2" d="M179.67,27.48c-1.41.17-3.37.33-5.41.44-1.85.09-4.28.16-5.47.16l-.25-1.44c1.38,0,3,0,4.7-.06V24.51h-3.3V18.72h8.46V20.1h-6.77v3h6.94v1.38h-3.64v2c1.73-.09,3.46-.21,4.59-.38Zm-8.31,6.34V29.1h1.7v3.34h9.58v1.38Zm9.31-3.72V17.53h1.68V30.1Z"/><path class="cls-2" d="M198.65,18.84c-.1,4.65-3,7.76-7.43,9.17l-.87-1.35a9.36,9.36,0,0,0,5.35-3.51l-5,.54-.34-1.45,6.08-.45a6.48,6.48,0,0,0,.42-1.54h-5.69V18.84Zm-5.67,15V28.56h1.7v3.91h9.61v1.37Zm5.71-9.76v-1.4h3.53V17.53h1.69V29.68h-1.69v-5.6Z"/><path class="cls-2" d="M209.52,25.77a23,23,0,0,0,4.88-.36l.2,1.32a26.84,26.84,0,0,1-5.2.43h-2V19h6.29v1.37h-4.61v2H213v1.36h-3.89v2.08Zm.29,8V28.53h1.7v3.85h9.81v1.39Zm6.3-4.32V23.6h-2.23V22.24h2.23V17.83h1.63V29.45Zm3.14.52V17.53h1.64V30Z"/><path class="cls-2" d="M223.29,32.15V30.76h15.13v1.39Zm13.76-3.78c-2.66-.47-5.37-2.16-6.19-3.89-.81,1.78-3.41,3.38-6.2,3.89L223.92,27c2.81-.29,6-2.27,6.07-4.51h-5.24V21.13h12.19v1.38h-5.22c.09,2.22,3.48,4.22,6.05,4.45Zm-9-8.74V18.27h5.53v1.36Z"/><path class="cls-2" d="M247.52,24.06h1.63V17.85h1.62V33.48h-1.62v-8h-1.63c-.16,3-1.36,5.13-3.67,5.13-2.5,0-3.69-2.54-3.69-5.89s1.19-5.85,3.69-5.85C246.19,18.84,247.38,21.06,247.52,24.06Zm-3.67-3.78c-1.33,0-2,1.82-2,4.43s.69,4.43,2,4.43,2-1.82,2-4.43S245.2,20.28,243.85,20.28Zm8.54,14V17.53H254V34.27Z"/><path class="cls-2" d="M261.36,21.94V20.57h9.83v1.37Zm4.94,6.77c-2.25,0-4-1.14-4-3s1.69-3,4-3,4,1.12,4,3S268.57,28.71,266.3,28.71Zm-2.54-9.29V18.05h4.86v1.37Zm0,14.35v-4.4h1.7v3H275v1.37Zm2.51-9.69c-1.23,0-2.27.58-2.27,1.64s1.06,1.62,2.27,1.62,2.27-.61,2.27-1.62S267.52,24.08,266.3,24.08Zm8.08.49v5.29h-1.67V17.53h1.67v5.62h2.52v1.42Z"/><path class="cls-2" d="M277.92,22.87V21.51h9.92v1.36Zm5.05,8c-2.38,0-4-1.49-4-3.51s1.59-3.53,4-3.53,3.94,1.53,3.94,3.53S285.34,30.85,283,30.85ZM280.41,20V18.61h5V20ZM283,25.22a2.12,2.12,0,1,0,0,4.23,2.08,2.08,0,0,0,2.26-2.11A2.13,2.13,0,0,0,283,25.22Zm8,.7v8.35h-1.69V17.53h1.69v7h2.67v1.43Z"/><path class="cls-2" d="M298.88,18.72c2.88,0,4.16,2.59,4.16,5.92s-1.28,5.9-4.16,5.9S294.7,28,294.7,24.62,296,18.72,298.88,18.72Zm0,1.45c-1.66,0-2.51,1.88-2.51,4.47s.85,4.45,2.51,4.45,2.52-1.88,2.52-4.45S300.53,20.17,298.88,20.17Zm4.66,2.33,0-1.43h3.08V17.53h1.69V34.27H306.6V28h-3.08l0-1.42h3.06V22.5Z"/><path class="cls-2" d="M323.25,19.58a12.82,12.82,0,0,1-6.18,11.27l-1.15-1.24A11,11,0,0,0,321.56,21h-4.9V19.58Zm5.44,14.69V25.36h-2v8.08h-1.61V17.91h1.61V24h2V17.53h1.64V34.27Z"/><path class="cls-2" d="M342.06,22.82c0,2.41-1.89,4.09-4.47,4.09s-4.46-1.68-4.46-4.07a4.48,4.48,0,0,1,8.93,0Zm-7.15,0a2.59,2.59,0,0,0,2.68,2.69,2.55,2.55,0,0,0,2.69-2.67,2.69,2.69,0,1,0-5.37,0Zm.56,11V28.53h1.69v3.85h9.71v1.37Zm9.31-4.07V17.53h1.69V29.68Z"/><path class="cls-2" d="M362.71,27.41v3.35h6.75v1.39H354.33V30.76H361V27.41h-5.42V26h2.79l-.45-4.36,1.73-.25L360,26h3.8l.64-4.58,1.66.29L365.37,26h2.74v1.38Zm-7.13-6.82V19.22h12.55v1.37Z"/><path class="cls-2" d="M370.89,32.15V30.76H386v1.39Zm3.51-8.07v2.38h9.8v1.38H372.71V19.11H384V20.5H374.4v2.23h9.26v1.35Z"/><path class="cls-2" d="M387.45,26.78V25.4h6.68V23.94H389V22.57h2.48l-.38-2.23,1.72-.26.28,2.49h3.86l.34-2.5,1.71.25-.47,2.25H401v1.37h-5.18V25.4h6.75v1.38Zm1.48-7.27V18.14H401v1.37Zm.47,14.64V30.38h9.49V29.21h-9.58V27.83h11.27v3.8h-9.47v1.11h10.1v1.41Z"/><path class="cls-2" d="M414.85,29.77a54.49,54.49,0,0,1-7.88.54h-2.09V23.72h6.26V20.41h-6.33V19h8v6.05h-6.27v3.8h.5a49.68,49.68,0,0,0,7.6-.52Zm3-12.24V34.27h-1.69V17.53Z"/><path class="cls-2" d="M429,27.61v3.1h6.74v1.38H420.57V30.71h6.7V27.59c-3.26-.25-5.36-2-5.36-4.48,0-2.72,2.48-4.52,6.23-4.52s6.23,1.8,6.23,4.52C434.37,25.63,432.24,27.36,429,27.61ZM428.14,20c-2.71,0-4.49,1.29-4.49,3.15s1.78,3.15,4.49,3.15,4.5-1.3,4.5-3.15S430.85,20,428.14,20Z"/><path class="cls-2" d="M447.09,18.79c3,0,4.28,2.59,4.28,5.92s-1.31,5.91-4.28,5.91-4.32-2.6-4.32-5.93S444.12,18.79,447.09,18.79Zm0,1.46c-1.71,0-2.59,1.87-2.59,4.46s.88,4.45,2.59,4.45,2.59-1.87,2.59-4.45S448.8,20.25,447.09,20.25Zm7.2,14V17.53H456V34.27Z"/><path class="cls-2" d="M470,23.63v2.29h3.82v1.37H458.73V25.92h3.75V23.6a2.75,2.75,0,0,1-2-2.51c0-1.92,2.12-3.13,5.78-3.13s5.76,1.21,5.76,3.13A2.79,2.79,0,0,1,470,23.63ZM466.3,34.24c-3.71,0-5.93-1.1-5.93-3s2.22-3,5.93-3,5.94,1.1,5.94,3S470,34.24,466.3,34.24Zm-4.13-3c0,1.08,1.64,1.64,4.13,1.64s4.16-.56,4.16-1.64-1.68-1.66-4.16-1.66S462.17,30.13,462.17,31.23Zm4.13-11.92c-2.49,0-4,.63-4,1.78s1.55,1.78,4,1.78,4-.64,4-1.78S468.78,19.31,466.3,19.31Zm-2.13,4.75v1.86h4.18V24.08a14.07,14.07,0,0,1-2.05.15A12.34,12.34,0,0,1,464.17,24.06Z"/><path class="cls-2" d="M480.24,22.87V21.51h9.65v1.36Zm4.88,8c-2.37,0-4-1.49-4-3.51a3.65,3.65,0,0,1,4-3.53c2.38,0,4,1.53,4,3.53S487.5,30.85,485.12,30.85ZM482.6,20V18.61h5V20Zm2.52,5.23a2.12,2.12,0,1,0,0,4.23,2.08,2.08,0,0,0,2.27-2.11A2.13,2.13,0,0,0,485.12,25.22Zm4.5.91V24.71h2.85V17.53h1.69V34.27h-1.69V26.13Z"/><path class="cls-2" d="M505.43,19.31c-.11,5.31-2.9,9.24-7.47,11.72l-1-1.29a11.34,11.34,0,0,0,6.7-9h-6V19.31Zm4.39,5.08h2.68v1.4h-2.68v8.48h-1.67V17.53h1.67Z"/><path class="cls-2" d="M513.45,26.57v-1.3h15.13v1.3Zm1.73,7.4V30.26h10V29h-10V27.74h11.65v3.71h-10v1.22h10.5V34Zm.18-9.89V20.53h9.69V19.36h-9.67V18.1h11.36v3.59h-9.69V22.8h10v1.28Z"/><path class="cls-2" d="M535.63,26.3V18.48h1.69v2.58h4.61v-2.6h1.69V26.3Zm6.3-3.88h-4.61v2.49h4.61ZM537.41,34V28.11H548V29.5H539.1v3.17h9.1V34ZM548,23.2v3.94h-1.69V17.53H548v4.26h2.5V23.2Z"/><path class="cls-2" d="M560.54,22.5c0,2.41-2,3.94-4.39,3.94s-4.37-1.51-4.37-3.94a4.39,4.39,0,0,1,8.76,0Zm-2.07,10.4a4.73,4.73,0,0,1-2-2,6.79,6.79,0,0,1-3.26,3.51l-1-1.19a5.44,5.44,0,0,0,3.33-4.64v-.78h1.67v.69a3.44,3.44,0,0,0,2.29,3.26Zm-5-10.42a2.67,2.67,0,1,0,2.65-2.58A2.51,2.51,0,0,0,553.5,22.48Zm12.09,11.86a6.83,6.83,0,0,1-3-3.16,6.34,6.34,0,0,1-3,3.38l-1.1-1.13a5.46,5.46,0,0,0,3.28-4.76v-.92h1.67v.87a5.12,5.12,0,0,0,3.21,4.52Zm-1.05-11.25v3.8h-1.69V17.53h1.69v4.16H567v1.4Z"/><path class="cls-2" d="M568.17,26.58V25.2H583.3v1.38ZM581.77,24c-2.4-.42-5.21-2-6-3.71-.77,1.78-3.51,3.26-6,3.69L569,22.68c2.66-.29,5.9-2,5.9-4.4v-.52h1.75v.52c0,2.4,3.47,4.22,5.92,4.42Zm-11.67,10V27.68h1.69v1.84h7.89V27.66h1.69v6.4Zm9.58-3.19h-7.89v1.82h7.89Z"/><path class="cls-2" d="M595.41,29.32a44.35,44.35,0,0,1-8.1.81h-1.57V19.27h1.69v9.4a42.61,42.61,0,0,0,7.76-.72Zm3,5h-1.67V17.53h1.67Z"/><path class="cls-2" d="M604.39,28.76a38.93,38.93,0,0,0,7-.54l.2,1.39a44.6,44.6,0,0,1-7.67.58H602V19.29h7.91v1.39h-6.23v8.08Zm9.83-4.7h2.61v1.41h-2.61v8.8h-1.67V17.53h1.67Z"/><path class="cls-2" d="M618,30.69h1.85v1.87H618Z"/><path class="cls-2" d="M53,60.61c-1.17.18-3,.34-5.06.45-1.83.09-3.78.16-5.34.16l-.26-1.44c.8,0,1.59,0,2.38,0L44.1,53l1.7-.2.43,7c.58,0,1.17,0,1.73-.08l.63,0L49,52.74l1.65.18-.61,6.61c1.12-.07,2.06-.16,2.76-.27Zm-10.15-9V50.18H52v1.39ZM55.5,55.14h2.67v1.4H55.5v8.73H53.81V48.53H55.5Z"/><path class="cls-2" d="M59.13,63.15V61.76H74.26v1.39Zm3.52-8.07v2.38h9.79v1.38H61V50.11H72.28V51.5H62.65v2.23H71.9v1.35Z"/><path class="cls-2" d="M78,59.92a40,40,0,0,0,7.62-.55l.16,1.38a49,49,0,0,1-7.89.58H76.32V50.08h8v1.36H78v3.37h5.9v1.37H78Zm10.62-4.86h2.61v1.41H88.62v8.8H87V48.53h1.67Z"/><path class="cls-2" d="M97.17,49.79c3,0,4.28,2.59,4.28,5.92s-1.31,5.91-4.28,5.91-4.32-2.6-4.32-5.93S94.2,49.79,97.17,49.79Zm0,1.46c-1.71,0-2.59,1.87-2.59,4.46s.88,4.45,2.59,4.45,2.59-1.87,2.59-4.45S98.88,51.25,97.17,51.25Zm7.2,14V48.53h1.69V65.27Z"/><path class="cls-2" d="M109.34,60.9V50.2h7.76V60.9Zm6.06-9.31H111v7.92h4.37ZM117.89,56V54.6h3V48.53h1.69V65.27h-1.69V56Z"/><path class="cls-2" d="M130.41,57.58V56.22h10.93a22.63,22.63,0,0,0,.45-5.15h-9.45V49.7H143.5a35.17,35.17,0,0,1-.48,6.52h2.52v1.36Zm2,7.1V59.37h1.69v3.92H144v1.39Z"/><path class="cls-2" d="M153.65,65.29V59.65H147V58.27H162.1v1.38h-6.75v5.64Zm-4.82-9V49.46h11.4v6.79Zm9.7-5.42h-8v4.05h8Z"/><path class="cls-2" d="M179,58.05c-1.4.2-3.71.42-5.35.47-1.8.09-3.89.14-5.15.14l-.25-1.42c1,0,2.32,0,3.53,0V53.62h1.69v3.55a53.27,53.27,0,0,0,5.33-.43Zm-1.35-8.26a23.67,23.67,0,0,1-.49,5.85l-1.63-.25a17.12,17.12,0,0,0,.41-4.22h-6.54V49.79Zm-6.72,15.05V60h1.7v3.51h9.58v1.37Zm10.68-9.63v5.85h-1.67V48.53h1.67v5.26h2.49v1.42Z"/><path class="cls-2" d="M194.14,58.52a31.32,31.32,0,0,1-5.78.47h-2.65V53.51h5.8V51h-5.82V49.61h7.51v5.24h-5.8V57.6h.81a35.07,35.07,0,0,0,5.71-.43ZM187.83,65V60h1.7v3.62h9.76V65Zm9.35-4.12v-4.5h-2.86V55h2.86V52.7H194.3V51.32h2.88V48.53h1.69V60.86Z"/><path class="cls-2" d="M213.52,61.74V58.47h-6.79V57.1h15.13v1.37h-6.65v3.27Zm-4.9,3V60.12h1.7v3.26h9.86v1.39Zm0-9.45V49.43H220v5.89Zm9.62-4.51h-7.93v3.12h7.93Z"/><path class="cls-2" d="M234.58,61c-1.53.2-4,.36-6.12.47-1.91.09-3.67.13-5,.15l-.27-1.44c1.6,0,3.56,0,5.54-.13,2.36-.09,4.34-.22,5.67-.38Zm-5.9-3.4c-2.47,0-4.36-1.55-4.36-3.82a4.06,4.06,0,0,1,4.36-3.94c2.48,0,4.39,1.55,4.39,3.94S231.13,57.62,228.68,57.62Zm0-6.34A2.57,2.57,0,0,0,226,53.79a2.5,2.5,0,0,0,2.69,2.41,2.47,2.47,0,1,0,0-4.92Zm8.48-2.75V65.27h-1.68V48.53Z"/><path class="cls-2" d="M245.42,60.86V50.35h6.66v4.37h2.1V48.91h1.62V64.44h-1.62V56.11h-2.1v4.75Zm5-9.16H247v7.81h3.42Zm7,13.57V48.53h1.64V65.27Z"/><path class="cls-2" d="M270.49,52.88c0,2.26-1.89,3.73-4.28,3.73s-4.29-1.42-4.29-3.71,1.87-3.81,4.29-3.81S270.49,50.63,270.49,52.88Zm-6.89,0a2.62,2.62,0,1,0,2.61-2.35A2.44,2.44,0,0,0,263.6,52.88Zm.72,12.27V60.84h9.18V59.29h-9.24V57.91h10.93V62.1H266v1.66h9.78v1.39ZM273.5,57V48.53h1.69V57Z"/><path class="cls-2" d="M284.17,53.1H286V55h-1.85Zm0,7H286V62h-1.85Z"/><path class="cls-2" d="M293.64,65.7V64.55a5.75,5.75,0,0,0,.92.07c.88,0,1.6-.18,1.89-.88l.43-1.24-3.66-8.89H295l2.68,6.73h.07l2.47-6.73h1.6L298,64c-.65,1.81-1.5,2-3.1,2A2.82,2.82,0,0,1,293.64,65.7Z"/><path class="cls-2" d="M302.78,58.5v-.29c0-3.31,2-4.8,4.2-4.8,2.61,0,3.85,1.51,3.85,4.5v.92h-6.36c.11,2.27,1.23,3.06,3.12,3.06a5.8,5.8,0,0,0,3-.72v1.2a5.4,5.4,0,0,1-3.22.92C304.31,63.29,302.78,61.44,302.78,58.5Zm1.69-1h4.63c0-2-.75-2.79-2.2-2.79C305.84,54.72,304.62,55.32,304.47,57.51Z"/><path class="cls-2" d="M312.54,56.22h6.3v1.42h-6.3Z"/><path class="cls-2" d="M321.21,53.61h1.55v1h.11a3.54,3.54,0,0,1,2.57-1.17,1.48,1.48,0,0,1,.6.09V55a5.33,5.33,0,0,0-.72-.06,4.55,4.55,0,0,0-2.47.74v7.42h-1.64Z"/><path class="cls-2" d="M327.77,50h1.67v1.69h-1.67Zm0,3.59h1.64v9.5h-1.64Z"/><path class="cls-2" d="M332.07,53.61h1.55v.8h.1a6,6,0,0,1,3.21-1c1.87,0,2.75.79,2.75,2.63v7.07h-1.62V56.38c0-1.1-.36-1.55-1.85-1.55a6.36,6.36,0,0,0-2.5.63v7.65h-1.64Z"/><path class="cls-2" d="M341.77,61.69h1.85v1.87h-1.85Z"/><path class="cls-2" d="M346.9,53.61h1.55v.75h.11a4,4,0,0,1,2.73-1c2,0,3.89,1.09,3.89,4.61v.25c0,3.49-1.66,5-4.28,5a4.4,4.4,0,0,1-2.36-.62V66H346.9Zm6.61,4.89v-.41c0-2.58-1-3.28-2.67-3.28a4,4,0,0,0-2.3.65v5.82a3.68,3.68,0,0,0,2.21.64C352.48,61.92,353.51,61,353.51,58.5Z"/><path class="cls-2" d="M356.62,60.59c0-1.66,1.08-2.54,2.88-2.77l2.52-.31v-.88c0-1.46-.63-1.8-2.34-1.8a10.06,10.06,0,0,0-2.27.27V53.93a8.1,8.1,0,0,1,2.92-.52c2.1,0,3.31.9,3.31,2.81v6.89h-1.31l-.17-.79h-.1a3.1,3.1,0,0,1-2.49,1C357.86,63.29,356.62,62.43,356.62,60.59Zm5.4.79V58.75l-2.11.22c-1.08.11-1.6.54-1.6,1.58S359,62,360,62A3.17,3.17,0,0,0,362,61.38Z"/><path class="cls-2" d="M366.18,53.61h1.55v1h.1a3.57,3.57,0,0,1,2.58-1.17,1.45,1.45,0,0,1,.59.09V55a5.33,5.33,0,0,0-.72-.06,4.49,4.49,0,0,0-2.46.74v7.42h-1.64Z"/><path class="cls-2" d="M372.69,49.41h1.64v13.7h-1.64Zm1.79,8.79,3.67-4.59h1.76l-3.72,4.48,4,5h-1.87Z"/><path class="cls-2" d="M381.33,59c0-4.34,2.83-8.56,8.19-8.56a6.25,6.25,0,0,1,6.65,6.49c0,3.47-1.55,5.52-4.16,5.52-1.21,0-1.85-.43-2.05-1.15h-.09a3,3,0,0,1-2.27,1.15c-1.66,0-2.59-1.18-2.59-3.06,0-3.18,1.51-5.24,4-5.24a2.88,2.88,0,0,1,2,.72H391l.11-.55h1.53l-1.14,6c-.1.59.08,1,.74,1,1.6,0,2.54-1.51,2.54-4.25,0-3.18-1.73-5.38-5.31-5.38-4.47,0-6.77,3.26-6.77,7.33,0,3.58,2,5.78,6,5.78a13.87,13.87,0,0,0,4.16-.72v1a10.64,10.64,0,0,1-4.18.85C384.05,65.94,381.33,63.38,381.33,59Zm8.59,1.33.78-4.25a2.31,2.31,0,0,0-1.73-.65c-1.75,0-2.31,1.62-2.31,3.94,0,1.21.49,1.82,1.37,1.82A2.67,2.67,0,0,0,389.92,60.34Z"/><path class="cls-2" d="M398.49,49.41h1.64v13.7h-1.64Z"/><path class="cls-2" d="M402.81,50h1.67v1.69h-1.67Zm0,3.59h1.64v9.5h-1.64Z"/><path class="cls-2" d="M407.11,53.61h1.55v.8h.11a6,6,0,0,1,3.2-1c1.87,0,2.75.79,2.75,2.63v7.07H413.1V56.38c0-1.1-.36-1.55-1.85-1.55a6.36,6.36,0,0,0-2.5.63v7.65h-1.64Z"/><path class="cls-2" d="M416.67,58.5v-.29c0-3.31,2-4.8,4.19-4.8,2.61,0,3.85,1.51,3.85,4.5v.92h-6.35c.11,2.27,1.22,3.06,3.11,3.06a5.86,5.86,0,0,0,3-.72v1.2a5.41,5.41,0,0,1-3.23.92C418.2,63.29,416.67,61.44,416.67,58.5Zm1.69-1H423c0-2-.76-2.79-2.2-2.79C419.73,54.72,418.5,55.32,418.36,57.51Z"/><path class="cls-2" d="M427.25,55h-1.39V53.61h1.39V52.24a2.71,2.71,0,0,1,3-3,3.64,3.64,0,0,1,1.62.32v1.17a6.21,6.21,0,0,0-1.33-.14c-1.06,0-1.66.52-1.66,1.78v1.23h2.18V55h-2.18v8.16h-1.62Z"/><path class="cls-2" d="M432.78,53.61h1.54v1h.11A3.57,3.57,0,0,1,437,53.48a1.45,1.45,0,0,1,.59.09V55a5.33,5.33,0,0,0-.72-.06,4.49,4.49,0,0,0-2.46.74v7.42h-1.64Z"/><path class="cls-2" d="M439.33,50H441v1.69h-1.67Zm0,3.59H441v9.5h-1.63Z"/><path class="cls-2" d="M443,58.5v-.29c0-3.31,2-4.8,4.19-4.8,2.61,0,3.85,1.51,3.85,4.5v.92h-6.35c.11,2.27,1.22,3.06,3.11,3.06a5.86,5.86,0,0,0,3-.72v1.2a5.41,5.41,0,0,1-3.23.92C444.57,63.29,443,61.44,443,58.5Zm1.69-1h4.63c0-2-.76-2.79-2.2-2.79C446.1,54.72,444.87,55.32,444.73,57.51Z"/><path class="cls-2" d="M453.08,53.61h1.55v.8h.11a6,6,0,0,1,3.2-1c1.87,0,2.76.79,2.76,2.63v7.07h-1.62V56.38c0-1.1-.36-1.55-1.86-1.55a6.4,6.4,0,0,0-2.5.63v7.65h-1.64Z"/><path class="cls-2" d="M462.69,58.66v-.27c0-3.47,1.78-5,4.23-5a4.71,4.71,0,0,1,2.43.59V49.41H471v13.7h-1.36l-.17-.75h-.09a3.78,3.78,0,0,1-2.73.93C464.78,63.29,462.69,62.16,462.69,58.66Zm6.66,2.54V55.37a3.89,3.89,0,0,0-2.23-.56c-1.73,0-2.74.88-2.74,3.37v.41c0,2.58,1.12,3.37,2.76,3.37A3.49,3.49,0,0,0,469.35,61.2Z"/><path class="cls-2" d="M472.93,62.61v-1.3a6.5,6.5,0,0,0,2.85.6c1.42,0,2-.49,2-1.32s-.39-1.17-1.56-1.48l-.9-.25c-1.37-.36-2.38-1-2.38-2.64s1.06-2.81,3.33-2.81a5.7,5.7,0,0,1,2.61.55v1.32a6.79,6.79,0,0,0-2.54-.49c-1.22,0-1.85.42-1.85,1.26s.41,1.08,1.38,1.35l.9.24c1.86.5,2.62,1.11,2.62,2.81,0,1.87-1.34,2.82-3.41,2.82A6.33,6.33,0,0,1,472.93,62.61Z"/><path class="cls-2" d="M480.94,61.69h1.86v1.87h-1.86Z"/><path class="cls-2" d="M485.48,58.57v-.32c0-3.35,2-4.84,4.52-4.84a4.62,4.62,0,0,1,2.59.63v1.37a5.68,5.68,0,0,0-2.7-.6c-1.69,0-2.72,1.14-2.72,3.21v.5c0,2.38,1,3.39,2.92,3.39a5.73,5.73,0,0,0,2.63-.67v1.3a5,5,0,0,1-2.81.75C487.21,63.29,485.48,61.76,485.48,58.57Z"/><path class="cls-2" d="M493.94,58.56v-.33c0-3,1.75-4.82,4.36-4.82s4.34,1.78,4.34,4.77v.3c0,3-1.75,4.81-4.36,4.81S493.94,61.53,493.94,58.56Zm7,.1v-.52c0-2.57-1.2-3.4-2.68-3.4-1.67,0-2.63,1.21-2.63,3.33v.52c0,2.58,1.21,3.37,2.68,3.37C500,62,500.94,60.79,500.94,58.66Z"/><path class="cls-2" d="M504.63,53.61h1.55v.8h.11a5.31,5.31,0,0,1,2.88-1,2.48,2.48,0,0,1,2.29,1.06h.09a5.72,5.72,0,0,1,3.16-1.06A2.32,2.32,0,0,1,517.34,56v7.07h-1.62V56.38c0-1.1-.39-1.55-1.65-1.55a5.48,5.48,0,0,0-2.31.65,4.6,4.6,0,0,1,0,.56v7.07h-1.62V56.38c0-1.1-.4-1.55-1.66-1.55a5.28,5.28,0,0,0-2.25.63v7.65h-1.64Z"/></g></g></svg>