<svg xmlns="http://www.w3.org/2000/svg" viewBox="0 0 20 19.95"><defs><style>.cls-1{fill:#fff;}</style></defs><g id="레이어_2" data-name="레이어 2"><g id="레이어_1-2" data-name="레이어 1"><path class="cls-1" d="M4.72,20a4.69,4.69,0,0,1-3.35-8l2-2a.94.94,0,0,1,1-.25.92.92,0,0,1,.66.8,1,1,0,0,1-.33.87L2.76,13.31a2.75,2.75,0,0,0,3.88,3.91q2.31-2.28,4.6-4.59a2.69,2.69,0,0,0,.06-3.86,1,1,0,0,1-.28-1,.94.94,0,0,1,.78-.65.93.93,0,0,1,.87.31,4.63,4.63,0,0,1,.09,6.48c-1.6,1.65-3.24,3.26-4.87,4.87A4.52,4.52,0,0,1,4.72,20Z"/><path class="cls-1" d="M15,0a4.81,4.81,0,0,1,4.65,2.86,4.72,4.72,0,0,1-1,5.16c-.45.45-.9.91-1.36,1.35a.93.93,0,0,1-1,.22A1,1,0,0,1,15.92,8l1.31-1.31a2.66,2.66,0,0,0,.67-2.81A2.54,2.54,0,0,0,15.78,2a2.6,2.6,0,0,0-2.4.71q-2,2-4,4a2.69,2.69,0,0,0,0,3.86,1,1,0,0,1,.25,1,.94.94,0,0,1-.82.64A1,1,0,0,1,8,11.92a4.64,4.64,0,0,1-.07-6.5C9.29,4,10.69,2.6,12.12,1.22A4.28,4.28,0,0,1,15,0Z"/></g></g></svg>