<svg xmlns="http://www.w3.org/2000/svg" viewBox="0 0 562.94 81.5"><defs><style>.cls-1{fill:#fff;}.cls-2{fill:#59529c;}</style></defs><g id="레이어_2" data-name="레이어 2"><g id="레이어_1-2" data-name="레이어 1"><path class="cls-1" d="M552.94,0H30A10,10,0,0,0,20,10v5L0,26,20,37V71.5a10,10,0,0,0,10,10H552.94a10,10,0,0,0,10-10V10A10,10,0,0,0,552.94,0Z"/><path class="cls-2" d="M41.3,25.18V24.8c0-4.9,2.91-6.55,6.12-6.55a6.73,6.73,0,0,1,3.37.77v1.44a7.76,7.76,0,0,0-3.5-.77c-3.15,0-4.17,2.34-4.17,4.86v.59c0,2.85.81,5,4.21,5a6.88,6.88,0,0,0,2.29-.36V26.42H46.93V25h4.36V30.8a10.94,10.94,0,0,1-4,.73C43.67,31.53,41.3,29.63,41.3,25.18Z"/><path class="cls-2" d="M53.16,26.76v-.32c0-3,1.74-4.83,4.36-4.83s4.34,1.79,4.34,4.78v.3c0,3-1.75,4.81-4.36,4.81S53.16,29.73,53.16,26.76Zm7,.11v-.52c0-2.58-1.2-3.4-2.68-3.4-1.67,0-2.63,1.2-2.63,3.33v.52c0,2.57,1.21,3.37,2.68,3.37C59.19,30.17,60.16,29,60.16,26.87Z"/><path class="cls-2" d="M63.26,26.76v-.32c0-3,1.74-4.83,4.35-4.83S72,23.4,72,26.39v.3c0,3-1.74,4.81-4.35,4.81S63.26,29.73,63.26,26.76Zm7,.11v-.52c0-2.58-1.21-3.4-2.68-3.4C65.9,23,65,24.15,65,26.28v.52c0,2.57,1.2,3.37,2.68,3.37C69.29,30.17,70.26,29,70.26,26.87Z"/><path class="cls-2" d="M73,32.07c0-1,.81-1.62,1.79-1.92v-.09c-.56-.22-1-.49-1-1.15a2.16,2.16,0,0,1,1.08-1.72,2.57,2.57,0,0,1-1.17-2.3v-.2c0-1.94,1.51-3.08,3.62-3.08a5.19,5.19,0,0,1,1.39.18H82V23H80.36a2.24,2.24,0,0,1,.59,1.6v.2c0,2-1.6,3-3.62,3a5.29,5.29,0,0,1-1.58-.24,1,1,0,0,0-.4.72c0,.49.29.62.9.62h2.61c1.75,0,3,.57,3,2.41s-1.33,2.83-4.59,2.83C74.42,34.15,73,33.5,73,32.07Zm7.19-.5c0-.76-.4-1.13-1.62-1.13H75.87a1.47,1.47,0,0,0-1.15,1.4c0,.86.76,1,2.54,1C79.42,32.85,80.18,32.52,80.18,31.57Zm-.85-6.68V24.6c0-1.2-.79-1.76-2-1.76s-2,.65-2,1.73v.28c0,1.19.78,1.73,2,1.73S79.33,26,79.33,24.89Z"/><path class="cls-2" d="M83.58,17.62h1.64v13.7H83.58Z"/><path class="cls-2" d="M87.27,26.71v-.29c0-3.31,2-4.81,4.19-4.81,2.61,0,3.86,1.52,3.86,4.5V27H89c.11,2.27,1.22,3.06,3.12,3.06a5.85,5.85,0,0,0,3-.72v1.21a5.47,5.47,0,0,1-3.22.92C88.8,31.5,87.27,29.64,87.27,26.71Zm1.69-1h4.63c0-2-.76-2.79-2.2-2.79C90.33,22.93,89.1,23.52,89,25.72Z"/><path class="cls-2" d="M101.88,25.07v-.45c0-4.63,2.65-6.37,5.91-6.37A6.53,6.53,0,0,1,111,19v1.4a9,9,0,0,0-3.3-.66c-2.28,0-4,1.33-4,4.66v.7c0,3.17,1.17,5,4,5a7.26,7.26,0,0,0,3.35-.81v1.43a7.13,7.13,0,0,1-3.58.82C104.08,31.53,101.88,29.43,101.88,25.07Z"/><path class="cls-2" d="M113.08,17.62h1.64v5h.09a5.75,5.75,0,0,1,3.13-1c1.87,0,2.76.8,2.76,2.63v7.08h-1.62V24.58c0-1.09-.36-1.54-1.86-1.54a6.19,6.19,0,0,0-2.5.63v7.65h-1.64Z"/><path class="cls-2" d="M123.23,21.81h1.55v1.05h.11a3.54,3.54,0,0,1,2.57-1.17,1.48,1.48,0,0,1,.6.09v1.44a5.46,5.46,0,0,0-.72-.06,4.55,4.55,0,0,0-2.47.74v7.42h-1.64Z"/><path class="cls-2" d="M129.15,26.76v-.32c0-3,1.75-4.83,4.36-4.83s4.34,1.79,4.34,4.78v.3c0,3-1.75,4.81-4.36,4.81S129.15,29.73,129.15,26.76Zm7,.11v-.52c0-2.58-1.21-3.4-2.69-3.4-1.67,0-2.62,1.2-2.62,3.33v.52c0,2.57,1.2,3.37,2.68,3.37C135.19,30.17,136.16,29,136.16,26.87Z"/><path class="cls-2" d="M139.85,21.81h1.54v.81h.11a5.35,5.35,0,0,1,2.88-1,2.48,2.48,0,0,1,2.29,1.07h.09a5.79,5.79,0,0,1,3.17-1.07,2.33,2.33,0,0,1,2.63,2.63v7.08h-1.62V24.58c0-1.09-.4-1.54-1.66-1.54a5.57,5.57,0,0,0-2.3.64c0,.18,0,.35,0,.56v7.08h-1.62V24.58c0-1.09-.4-1.54-1.66-1.54a5.22,5.22,0,0,0-2.25.63v7.65h-1.63Z"/><path class="cls-2" d="M154.5,26.71v-.29c0-3.31,2-4.81,4.19-4.81,2.61,0,3.86,1.52,3.86,4.5V27h-6.36c.11,2.27,1.22,3.06,3.11,3.06a5.86,5.86,0,0,0,3-.72v1.21a5.48,5.48,0,0,1-3.23.92C156,31.5,154.5,29.64,154.5,26.71Zm1.69-1h4.63c0-2-.76-2.79-2.2-2.79C157.56,22.93,156.33,23.52,156.19,25.72Z"/><path class="cls-2" d="M171.64,23.27h1.62V17.06h1.62V32.69h-1.62v-8h-1.62c-.17,3-1.37,5.13-3.68,5.13-2.5,0-3.69-2.54-3.69-5.89s1.19-5.85,3.69-5.85C170.3,18.05,171.49,20.26,171.64,23.27ZM168,19.49c-1.33,0-2,1.82-2,4.43s.68,4.43,2,4.43,2-1.82,2-4.43S169.31,19.49,168,19.49Zm8.54,14V16.73h1.62V33.48Z"/><path class="cls-2" d="M196.93,29.86c-1.43.16-3.73.34-5.78.43-1.84.11-3.87.18-5.28.16L185.6,29c1.37,0,3,0,4.66-.09V25.81H192v3.06c1.8-.09,3.69-.2,4.82-.36Zm-10.57-9.67h9.45V21.6h-3.87c.09,1.81,2.3,3.36,4.34,3.74l-.85,1.37a7.34,7.34,0,0,1-4.3-3.1c-.56,1.46-2.5,2.92-4.48,3.49l-.87-1.36c2.32-.58,4.39-2.29,4.47-4.14h-3.89Zm2.45-2.9h4.62V18.7h-4.62Zm8.94,16.19V16.73h1.7V33.48Z"/><path class="cls-2" d="M202.52,18h9.15v1.38H208V20c0,2.38,2.11,4.27,4,4.84l-.94,1.35a7.85,7.85,0,0,1-3.9-3.58A8,8,0,0,1,203,26.71L202,25.38c2.18-.8,4.28-3,4.28-5.32v-.7h-3.76Zm13.36,9.56v5.94h-1.71V28.91h-9.51V27.54Zm-1.71-.89V22.42h-3.11V21h3.11V16.73h1.69v9.92Z"/><path class="cls-2" d="M229.13,30.18c-1.39.18-3.77.36-5.76.47-1.8.11-3.37.15-4.76.15l-.25-1.43c1.31,0,2.85,0,4.45-.07V27.79c-1.87-.25-3.15-1.35-3.15-2.81,0-1.71,1.67-2.86,4-2.86s4,1.13,4,2.86c0,1.5-1.24,2.58-3.15,2.81v1.4c1.82-.09,3.37-.21,4.47-.36Zm-10.36-8.76V20h9.94v1.39Zm2.47-2.49V17.54H226v1.39Zm2.41,4.56c-1.31,0-2.25.64-2.25,1.49s.94,1.5,2.25,1.5,2.25-.69,2.25-1.5S225,23.49,223.65,23.49Zm8,2.1v7.89H230V16.73h1.67v7.46h2.58v1.4Z"/><path class="cls-2" d="M251.43,29.63c-1.4.16-3.37.32-5.4.43-1.86.09-4.29.16-5.48.16l-.25-1.44c1.37,0,3,0,4.67-.07V25.29h-3.48V18.34h8.75v1.38h-7.06v4.2h7.15v1.37h-3.67v3.35c1.75-.09,3.49-.2,4.64-.36Zm1,3.85V16.73h1.69V33.48Z"/><path class="cls-2" d="M261.24,17.92c2.72,0,4.05,2.2,4.25,5.15h3.4V16.73h1.69V33.48h-1.69v-9h-3.4c-.18,3-1.5,5.24-4.25,5.24-3,0-4.31-2.59-4.31-5.92S258.27,17.92,261.24,17.92Zm0,1.46c-1.71,0-2.58,1.87-2.58,4.47s.87,4.44,2.58,4.44,2.59-1.87,2.59-4.44S262.93,19.38,261.24,19.38Z"/><path class="cls-2" d="M282.53,21.7c0,2.4-1.94,3.95-4.35,3.95s-4.34-1.53-4.34-3.95a4.36,4.36,0,0,1,8.69,0Zm-2,10.36a4.61,4.61,0,0,1-1.93-2,6.83,6.83,0,0,1-3.26,3.51l-1-1.19a5.42,5.42,0,0,0,3.33-4.65V27h1.66v.62a3.51,3.51,0,0,0,2.36,3.27Zm-5-10.39a2.53,2.53,0,0,0,2.65,2.59,2.58,2.58,0,1,0,0-5.15A2.53,2.53,0,0,0,275.53,21.67Zm12.14,11.88a6.85,6.85,0,0,1-3-3.17,6.32,6.32,0,0,1-3,3.39l-1.1-1.14a5.46,5.46,0,0,0,3.28-4.75V27h1.67v.8a5.09,5.09,0,0,0,3.21,4.51Zm-2.22-7.24V16.73h1.69v9.58Z"/><path class="cls-2" d="M290,31.21V29.82h15.13v1.39Zm7.57-4.37c-3.64,0-6-1.75-6-4.34s2.4-4.34,6-4.34,6.05,1.76,6.05,4.34S301.16,26.84,297.53,26.84Zm0-7.21c-2.6,0-4.31,1.17-4.31,2.87s1.71,2.86,4.31,2.86,4.32-1.15,4.32-2.86S300.14,19.63,297.53,19.63Z"/><path class="cls-2" d="M307.14,29.28V18.41h7.61V29.28Zm5.92-9.49h-4.23V27.9h4.23Zm2.67.76h2.89V16.73h1.7V33.48h-1.7V26.65h-2.89V25.23h2.89V22h-2.89Z"/><path class="cls-2" d="M323.48,30h1.93l-1.19,3.87h-1.41Z"/><path class="cls-2" d="M344.17,29.86c-1.43.16-3.73.34-5.78.43-1.84.11-3.88.18-5.28.16L332.84,29c1.37,0,3,0,4.66-.09V25.81h1.7v3.06c1.8-.09,3.69-.2,4.82-.36ZM333.6,20.19h9.45V21.6h-3.87c.09,1.81,2.3,3.36,4.34,3.74l-.85,1.37a7.34,7.34,0,0,1-4.3-3.1c-.56,1.46-2.5,2.92-4.49,3.49L333,25.74c2.32-.58,4.39-2.29,4.47-4.14H333.6Zm2.44-2.9h4.63V18.7H336ZM345,33.48V16.73h1.7V33.48Z"/><path class="cls-2" d="M349.36,31.35V30H356V26.33h1.7V30h6.75v1.38Zm13.76-4c-2.66-.46-5.37-2.12-6.19-3.85-.8,1.82-3.42,3.39-6.2,3.84L350,26c2.67-.29,5.69-2,6.05-4.11h-5.22V20.53H363V21.9h-5.18c.36,2.09,3.54,3.87,6,4.09Zm-9-8.59V17.42h5.53V18.8Z"/><path class="cls-2" d="M371.4,17.81h9.13v1.37h-3.68v.29c0,2.38,2.11,4.36,4,4.93l-.94,1.35a8,8,0,0,1-3.9-3.67,8.12,8.12,0,0,1-4.18,4.16l-1-1.31c2.18-.8,4.3-3.08,4.3-5.42v-.33H371.4Zm2.54,15.43V26.6h1.69v2H383v-2h1.69v6.68ZM383,29.91h-7.38v2H383Zm0-4.23V22.1h-3.08V20.71H383v-4h1.69v9Z"/><path class="cls-2" d="M387.52,26.35V25h6.72V22.46h1.69V25h6.72v1.37Zm13.67-3.08c-2.57-.45-5.29-2.09-6.1-3.8-.72,1.71-3.33,3.33-6.07,3.8l-.74-1.33c2.79-.29,5.94-2.11,5.94-4.5v-.53H396v.53c0,2.41,3.53,4.3,6,4.5ZM400.78,28v5.54h-1.7V29.39h-9.93V28Z"/><path class="cls-2" d="M418.29,29.45a11.2,11.2,0,0,1-4.05-5,10.54,10.54,0,0,1-4.13,5.42l-1.06-1.26a9.22,9.22,0,0,0,4.31-7.58V18.21h1.74V21a8.53,8.53,0,0,0,4.2,7.21Zm3,4V16.73H423V33.48Z"/><path class="cls-2" d="M41.4,61.6l.35-1.3a6.22,6.22,0,0,0,3,.83c2.05,0,3.2-.9,3.2-2.48s-1.2-2.35-3.09-2.35H43.57V54.92H44.7c1.64,0,2.74-.83,2.74-2.22s-1-2.07-2.52-2.07a6,6,0,0,0-2.83.89l-.24-1.34a7.33,7.33,0,0,1,3.43-1c2.34,0,3.9,1.17,3.9,3.2a3.09,3.09,0,0,1-2.43,3,3.13,3.13,0,0,1,2.9,3.24c0,2.29-1.82,3.84-4.7,3.84A6.64,6.64,0,0,1,41.4,61.6Z"/><path class="cls-2" d="M52.29,49.46h3.89c3.89,0,6,2,6,6.07v.38c0,4-1.86,6.41-6,6.41H52.29Zm4,11.42c2.86,0,4.14-1.42,4.14-4.72v-.63c0-3.49-1.59-4.61-4.38-4.61H54v10Z"/><path class="cls-2" d="M77.21,57.82v3.09h6.73V62.3H68.82V60.91h6.7V57.8c-3.26-.25-5.37-2-5.37-4.48,0-2.72,2.49-4.52,6.23-4.52s6.23,1.8,6.23,4.52C82.61,55.84,80.49,57.56,77.21,57.82Zm-.83-7.66c-2.7,0-4.48,1.3-4.48,3.16s1.78,3.15,4.48,3.15,4.5-1.3,4.5-3.15S79.1,50.16,76.38,50.16Z"/><path class="cls-2" d="M85.38,62.23V60.84H100.5v1.39Zm1.87-4.49V49.23h1.69v2.92h8V49.21h1.69v8.53Zm9.69-4.23h-8v2.85h8Z"/><path class="cls-2" d="M102.37,49h7.42v1.39H107V51a5.05,5.05,0,0,0,3.3,4.68L109.32,57a7,7,0,0,1-3.15-3.15,6.83,6.83,0,0,1-3.24,3.62l-1.05-1.24A5.75,5.75,0,0,0,105.32,51v-.61h-2.95Zm12,15.47V59.82h-9.69V58.45h11.36v6Zm-3.14-7V53.24h-2.34V51.86h2.34V48.08h1.62v9.38Zm3.17.14V47.73h1.64V57.6Z"/><path class="cls-2" d="M118.5,62.35V61h15.12v1.38ZM122,54.29v2.37h9.79v1.39H120.32V49.32h11.32V50.7H122v2.24h9.25v1.35Z"/><path class="cls-2" d="M135.06,56.77V55.48h15.12v1.29Zm1.73,7.4V60.46h10V59.22h-10V57.94h11.65v3.71h-10v1.23H149v1.29Zm.18-9.88V50.74h9.68V49.57H137V48.31h11.37v3.58h-9.69V53h10v1.28Z"/><path class="cls-2" d="M165,57.62V61h6.75v1.38H156.66V61h6.68V57.62h-5.42V56.23h2.79l-.45-4.35,1.73-.26.32,4.61h3.8l.65-4.57,1.66.29-.72,4.28h2.73v1.39Zm-7.13-6.83V49.43h12.55v1.36Z"/><path class="cls-2" d="M173.13,51.79V50.42h9.81v1.37ZM178,58c-2.22,0-3.87-1.1-3.87-2.78s1.63-2.77,3.87-2.77,3.87,1.08,3.87,2.77S180.22,58,178,58Zm-2.51,6.22V59h10.66v5.27Zm.2-14.87V48h4.68v1.38Zm2.31,4.4c-1.19,0-2.2.57-2.2,1.47s1,1.48,2.2,1.48,2.18-.6,2.18-1.48S179.18,53.77,178,53.77Zm6.46,6.55H177.2v2.57h7.27Zm1.69-6.3v4.12h-1.69V47.73h1.69v4.88h2.49V54Z"/><path class="cls-2" d="M189.69,52.15V50.78h9.83v1.37Zm4.93,6.77c-2.25,0-4-1.14-4-3s1.69-3,4-3,4,1.12,4,3S196.89,58.92,194.62,58.92Zm-2.54-9.3V48.26h4.86v1.36Zm0,14.36v-4.4h1.69v3h9.47V64Zm2.5-9.69c-1.22,0-2.27.57-2.27,1.64s1.07,1.62,2.27,1.62,2.27-.61,2.27-1.62S195.85,54.29,194.62,54.29Zm8.09.48v5.3H201V47.73h1.68v5.62h2.52v1.42Z"/><path class="cls-2" d="M230.73,56a23,23,0,0,0,4.88-.36l.2,1.32a27.84,27.84,0,0,1-5.21.43h-1.94V49.21h6.28v1.37h-4.61v2h3.89v1.35h-3.89V56Zm.29,8V58.73h1.69v3.86h9.81V64Zm6.3-4.33V53.8h-2.23V52.45h2.23V48h1.62V59.65Zm3.13.53V47.73h1.64V60.18Z"/><path class="cls-2" d="M244.5,62.35V61h15.12v1.38Zm13.75-3.78c-2.66-.47-5.36-2.16-6.19-3.89-.81,1.79-3.4,3.39-6.19,3.89l-.74-1.35c2.81-.28,6-2.27,6.07-4.5H246V51.34h12.19v1.38h-5.23c.09,2.22,3.48,4.22,6.05,4.45Zm-9-8.73V48.47h5.53v1.37Z"/><path class="cls-2" d="M266.1,62.35V61h6.68V58.32h-4.86V52.94h9.74V50.49h-9.78V49.1h11.47v5.22h-9.74v2.62H279.8v1.38h-5.33V61h6.75v1.38Z"/><path class="cls-2" d="M285.29,55a45,45,0,0,0,7.7-.55l.26,1.35a45.62,45.62,0,0,1-7.93.59h-1.73V49h7.85v1.39h-6.15Zm5.51,9.51c-3.62,0-5.69-1.24-5.69-3.22S287.18,58,290.8,58s5.7,1.26,5.7,3.24S294.45,64.46,290.8,64.46Zm0-5.08c-2.47,0-3.95.69-3.95,1.86s1.48,1.83,3.95,1.83,4-.66,4-1.83S293.32,59.38,290.8,59.38Zm3.9-1.56V47.73h1.7V57.82Z"/><path class="cls-2" d="M313.42,60.45a11.26,11.26,0,0,1-4.05-5,10.52,10.52,0,0,1-4.12,5.42l-1.06-1.26a9.21,9.21,0,0,0,4.3-7.58V49.21h1.75V52a8.55,8.55,0,0,0,4.19,7.21Zm3,4V47.73h1.69V64.48Z"/><path class="cls-2" d="M329.06,49.08c-.14,4.56-3.2,7.87-7.58,9.15l-.86-1.38c3.46-.85,6.12-3.43,6.59-6.36h-5.73V49.08Zm-5.88,15V58.79h1.69v3.85h9.38V64Zm10.57-9.78v5.82h-1.7V47.73h1.7v5.1h2.52v1.42Z"/><path class="cls-2" d="M342.29,49c3,0,4.29,2.6,4.29,5.93s-1.32,5.9-4.29,5.9S338,58.23,338,54.9,339.32,49,342.29,49Zm0,1.46c-1.71,0-2.59,1.88-2.59,4.47s.88,4.45,2.59,4.45,2.6-1.88,2.6-4.45S344,50.45,342.29,50.45Zm7.21,14V47.73h1.69V64.48Z"/><path class="cls-2" d="M362.07,59a38.93,38.93,0,0,0,7-.54l.2,1.39a44.76,44.76,0,0,1-7.67.57H359.7V49.5h7.9v1.39h-6.23V59Zm9.84-4.7h2.61v1.4h-2.61v8.81h-1.68V47.73h1.68Z"/><path class="cls-2" d="M375.54,62.35V61h6.68V56.81h1.69V61h6.75v1.38ZM389.2,57.2c-2.63-.73-5.33-2.82-6.1-4.71-.68,1.91-3.4,4-6.12,4.7l-.87-1.37c2.74-.49,6.13-2.88,6.13-5.69V49H384v1.15c0,2.79,3.59,5.24,6.14,5.74Z"/><path class="cls-2" d="M397.14,62.35V61h6.68V56.81h1.69V61h6.75v1.38ZM410.8,57.2c-2.63-.73-5.33-2.82-6.1-4.71-.68,1.91-3.4,4-6.12,4.7l-.87-1.37c2.74-.49,6.13-2.88,6.13-5.69V49h1.74v1.15c0,2.79,3.59,5.24,6.14,5.74Z"/><path class="cls-2" d="M413.7,62.35V61h3.64V58l1.69-.06v3h4.43v-3l1.69.06v3h3.67v1.38Zm7.56-4.84c-3.75,0-6.23-1.71-6.23-4.32s2.48-4.34,6.23-4.34,6.23,1.73,6.23,4.34S425,57.51,421.26,57.51Zm0-7.27c-2.7,0-4.48,1.19-4.48,2.95s1.78,2.93,4.48,2.93,4.5-1.18,4.5-2.93S424,50.24,421.26,50.24Z"/><path class="cls-2" d="M441.35,55.91c-1.41.16-3.37.34-5.4.43-1.86.09-4.29.16-5.48.16l-.25-1.42c1.39,0,3,0,4.7,0V53.46H431.7v-5H440v1.35h-6.57v2.25h6.73v1.35h-3.51v1.48c1.73-.09,3.46-.2,4.59-.36ZM433,64.28v-4h9.33V59h-9.45V57.64H444v3.87H434.7v1.4h10v1.37Zm9.35-7.42V47.73H444v9.13Z"/><path class="cls-2" d="M458.54,64.5v-6h-6.68V57.11H467v1.37h-6.75v6Zm7.06-9c-2.47-.47-5.32-2.14-6.18-4-.76,1.86-3.64,3.53-6.18,4l-.75-1.39c3-.4,6.05-2.45,6.05-4.79V48.24h1.78V49.3c0,2.34,3.37,4.5,6.09,4.77Z"/><path class="cls-2" d="M482.59,52.7c0,2.4-1.95,3.95-4.36,3.95s-4.34-1.53-4.34-3.95a4.36,4.36,0,0,1,8.7,0Zm-2,10.36a4.61,4.61,0,0,1-1.93-2,6.79,6.79,0,0,1-3.26,3.51l-1-1.19a5.44,5.44,0,0,0,3.33-4.65V58h1.65v.62a3.51,3.51,0,0,0,2.36,3.27Zm-5-10.39a2.53,2.53,0,0,0,2.65,2.59,2.58,2.58,0,1,0,0-5.15A2.53,2.53,0,0,0,475.58,52.67Zm12.14,11.88a6.85,6.85,0,0,1-3-3.17,6.32,6.32,0,0,1-3,3.39l-1.09-1.14a5.47,5.47,0,0,0,3.27-4.75V58h1.68v.8a5.08,5.08,0,0,0,3.2,4.51Zm-2.22-7.24V47.73h1.7v9.58Z"/><path class="cls-2" d="M490,56.79V55.4h15.12v1.39Zm13.59-2.56c-2.39-.41-5.2-1.94-6-3.71-.77,1.79-3.51,3.26-6,3.7l-.74-1.34c2.66-.28,5.9-2,5.9-4.39V48h1.75v.52c0,2.4,3.48,4.21,5.93,4.41Zm-11.67,10V57.89h1.7v1.84h7.88V57.87h1.69v6.39Zm9.58-3.18h-7.88v1.81h7.88Z"/><path class="cls-2" d="M517.25,59.53a46.09,46.09,0,0,1-8.1.81h-1.56V49.48h1.69v9.4a42.78,42.78,0,0,0,7.76-.72Zm3,5h-1.68V47.73h1.68Z"/><path class="cls-2" d="M526.23,59a38.93,38.93,0,0,0,7-.54l.2,1.39a44.76,44.76,0,0,1-7.67.57h-1.87V49.5h7.9v1.39h-6.23V59Zm9.84-4.7h2.61v1.4h-2.61v8.81h-1.68V47.73h1.68Z"/><path class="cls-2" d="M539.82,60.9h1.86v1.87h-1.86Z"/><path class="cls-2" d="M220,49.14c-.11,4.64-3,7.76-7.44,9.16L211.74,57a9.34,9.34,0,0,0,5.35-3.51l-5,.54-.34-1.44,6.09-.45a6.55,6.55,0,0,0,.41-1.55h-5.69v-1.4Zm-5.67,15V58.86h1.69v3.91h9.61v1.37Zm5.7-9.76V53h3.53V47.82h1.7V60h-1.7v-5.6Z"/></g></g></svg>