<?xml version="1.0" encoding="utf-8"?>
<!-- Generator: Adobe Illustrator 25.0.0, SVG Export Plug-In . SVG Version: 6.00 Build 0)  -->
<svg version="1.1" id="레이어_1" xmlns="http://www.w3.org/2000/svg" xmlns:xlink="http://www.w3.org/1999/xlink" x="0px"
	 y="0px" viewBox="0 0 25 25" style="enable-background:new 0 0 25 25;" xml:space="preserve">
<style type="text/css">
	.st0{fill:#FFFFFF;}
	.st1{fill:#FFC5D4;}
</style>
<g id="레이어_2_1_">
	<g id="레이어_1-2">
		<path class="st0" d="M12.5,0C5.6,0,0,5.6,0,12.5S5.6,25,12.5,25S25,19.4,25,12.5S19.4,0,12.5,0z M13.9,19.3h-2.6v-2.6h2.6V19.3z
			 M16.4,11.6c-0.4,0.6-1,1.1-1.6,1.6c-0.3,0.2-0.6,0.5-0.8,0.8c-0.2,0.4-0.3,0.9-0.3,1.4h-2.4c0-0.7,0.1-1.4,0.3-2.1
			c0.4-0.7,0.9-1.2,1.6-1.6c0.3-0.2,0.6-0.5,0.8-0.9c0.2-0.3,0.3-0.7,0.3-1.1c0-0.6-0.2-1.1-0.6-1.5C13.4,8,13,7.8,12.5,7.8
			c-0.6-0.1-1.2,0.2-1.6,0.7c-0.2,0.5-0.4,1-0.3,1.5l0,0H8C7.9,8.7,8.4,7.5,9.4,6.6c0.8-0.7,1.9-1,2.9-1c0.9,0,1.9,0.2,2.7,0.6
			c1.3,0.6,2,2,1.9,3.4C17,10.3,16.8,11,16.4,11.6z"/>
	</g>
</g>
<path class="st1" d="M12.5,0C5.6,0,0,5.6,0,12.5S5.6,25,12.5,25S25,19.4,25,12.5S19.4,0,12.5,0z M13.9,19.3h-2.6v-2.6h2.6V19.3z
	 M16.4,11.6c-0.3,0.5-0.9,1-1.6,1.6c-0.4,0.3-0.7,0.6-0.9,0.8c-0.2,0.3-0.3,0.8-0.3,1.4h-2.4c0-1,0.1-1.7,0.3-2.1
	c0.2-0.5,0.8-1.1,1.6-1.6c0.4-0.3,0.6-0.6,0.8-0.9c0.2-0.3,0.3-0.7,0.3-1.1c0-0.7-0.2-1.2-0.6-1.5C13.4,8,13,7.9,12.5,7.9
	c-0.7,0-1.3,0.2-1.6,0.7C10.7,9,10.6,9.4,10.6,10v0H8c0-1.5,0.5-2.6,1.4-3.4c0.8-0.6,1.8-1,3-1c1,0,1.9,0.2,2.7,0.6
	C16.4,6.9,17,8,17,9.6C17,10.4,16.8,11.1,16.4,11.6z"/>
</svg>
