<svg xmlns="http://www.w3.org/2000/svg" viewBox="0 0 206 46"><defs><style>.cls-1{fill:#ffc5d4;}</style></defs><g id="레이어_2" data-name="레이어 2"><g id="레이어_1-2" data-name="레이어 1"><path class="cls-1" d="M195.5,46H10.5A10.51,10.51,0,0,1,0,35.5v-25A10.51,10.51,0,0,1,10.5,0h185A10.51,10.51,0,0,1,206,10.5v25A10.51,10.51,0,0,1,195.5,46ZM10.5,1A9.51,9.51,0,0,0,1,10.5v25A9.51,9.51,0,0,0,10.5,45h185a9.51,9.51,0,0,0,9.5-9.5v-25A9.51,9.51,0,0,0,195.5,1Z"/><path class="cls-1" d="M45.94,15.35h5.35c3.62,0,5.42,1.66,5.42,4.7s-2,4.87-5.23,4.87H48.69v5.73H45.94Zm5,7.52c2.06,0,2.85-.87,2.85-2.65,0-2-.79-2.75-2.81-2.75H48.69v5.4Z"/><path class="cls-1" d="M59.25,15.35H64.4c3.53,0,5.33,1.49,5.33,4.47a3.87,3.87,0,0,1-2.77,4v.1l3.8,6.76h-3l-3.4-6.17H62v6.17H59.25Zm4.85,7.22c2,0,2.8-.86,2.8-2.64s-.84-2.46-2.82-2.46H62v5.1Z"/><path class="cls-1" d="M72.29,23.24v-.48c0-4.93,2.84-7.66,7-7.66s6.88,2.54,6.88,7.66v.48c0,5-2.87,7.67-7,7.67S72.29,28.32,72.29,23.24Zm11,.3v-.76c0-3.44-1.11-5.52-4.07-5.54-2.66,0-4,2.1-4,5.21v.77c0,3.47,1.12,5.57,4.06,5.57C82,28.79,83.25,26.67,83.25,23.54Z"/><path class="cls-1" d="M88,30.17v-2a7.23,7.23,0,0,0,2.48.45,2,2,0,0,0,2.29-2.31V15.35h2.79V26.5c0,2.45-1.38,4.3-4.49,4.3A6.37,6.37,0,0,1,88,30.17Z"/><path class="cls-1" d="M99.07,15.35h9.57v2.16h-6.82v4.2h5.29v2.14h-5.29v4.64h7v2.16h-9.7Z"/><path class="cls-1" d="M110.68,23.24V22.7c0-5.52,3.22-7.6,7.18-7.6a8,8,0,0,1,3.85.79V18a9.16,9.16,0,0,0-3.64-.72c-2.66,0-4.43,1.45-4.43,5.08v.78c0,3.51,1.24,5.5,4.45,5.5a8.7,8.7,0,0,0,3.78-.84V30a8.87,8.87,0,0,1-4.28.95C113.33,30.91,110.68,28.41,110.68,23.24Z"/><path class="cls-1" d="M127.73,17.51h-4.38V15.35h11.5v2.16h-4.37V30.65h-2.75Z"/><path class="cls-1" d="M143.17,15.35h2.75V28.49h6.47v2.16h-9.22Z"/><path class="cls-1" d="M155,15.35h2.77v15.3H155Z"/><path class="cls-1" d="M161.48,15.35h3.09l6.36,10.81H171V15.35h2.44v15.3H170.7L164,19.11h-.06V30.65h-2.44Z"/><path class="cls-1" d="M177,15.35h2.75v15.3H177Zm8.67,15.3L180,22.89c1.87-2.52,3.78-5,5.67-7.54h2.84q-2.75,3.62-5.5,7.24,2.92,4,5.81,8.06Z"/><path class="cls-1" d="M21.39,33A4.69,4.69,0,0,1,18,25c.66-.67,1.33-1.33,2-2a.93.93,0,0,1,1-.24.92.92,0,0,1,.66.8,1,1,0,0,1-.33.86c-.65.64-1.3,1.29-1.94,1.94a2.75,2.75,0,0,0,.86,4.47,2.8,2.8,0,0,0,3-.56c1.53-1.53,3.06-3,4.59-4.59A2.69,2.69,0,0,0,28,21.8a1,1,0,0,1-.28-1.05.94.94,0,0,1,.78-.65,1,1,0,0,1,.87.3,4.63,4.63,0,0,1,.09,6.48c-1.6,1.65-3.23,3.25-4.87,4.86A4.48,4.48,0,0,1,21.39,33Z"/><path class="cls-1" d="M31.64,13a4.79,4.79,0,0,1,4.64,2.85,4.7,4.7,0,0,1-1,5.15c-.45.46-.9.91-1.36,1.36a.91.91,0,0,1-1,.22.92.92,0,0,1-.64-.82.94.94,0,0,1,.3-.8l1.31-1.31a2.65,2.65,0,0,0,.67-2.8A2.54,2.54,0,0,0,32.43,15a2.62,2.62,0,0,0-2.4.72c-1.33,1.31-2.66,2.64-4,4a2.7,2.7,0,0,0,0,3.86,1,1,0,0,1,.25,1,.92.92,0,0,1-.82.64,1,1,0,0,1-.82-.32,4.63,4.63,0,0,1-.07-6.49C26,17,27.35,15.64,28.78,14.26A4.22,4.22,0,0,1,31.64,13Z"/></g></g></svg>